<svg xmlns="http://www.w3.org/2000/svg" xmlns:xlink="http://www.w3.org/1999/xlink" width="1080" zoomAndPan="magnify" viewBox="0 0 810 809.999993" height="1080" preserveAspectRatio="xMidYMid meet" version="1.0"><defs><clipPath id="cb4d9ef48e"><path d="M 40.5 40.5 L 770 40.5 L 770 769.5 L 40.5 769.5 Z M 40.5 40.5 " clip-rule="nonzero"/></clipPath><clipPath id="65d8ca33ad"><path d="M 769.5 405.003906 C 769.5 606.304688 606.304688 769.5 405 769.5 C 203.691406 769.5 40.5 606.304688 40.5 405.003906 C 40.5 203.695312 203.691406 40.5 405 40.5 C 606.308594 40.5 769.5 203.695312 769.5 405.003906 Z M 769.5 405.003906 " clip-rule="nonzero"/></clipPath><clipPath id="539e24a32f"><path d="M 0.5 0.5 L 729.679688 0.5 L 729.679688 729.5 L 0.5 729.5 Z M 0.5 0.5 " clip-rule="nonzero"/></clipPath><clipPath id="bf2d2475f9"><path d="M 729.5 365.003906 C 729.5 566.304688 566.304688 729.5 365 729.5 C 163.691406 729.5 0.5 566.304688 0.5 365.003906 C 0.5 163.695312 163.691406 0.5 365 0.5 C 566.308594 0.5 729.5 163.695312 729.5 365.003906 Z M 729.5 365.003906 " clip-rule="nonzero"/></clipPath><clipPath id="d65dd16be0"><rect x="0" width="730" y="0" height="730"/></clipPath><clipPath id="e4ebfce868"><path d="M 139 138.644531 L 671 138.644531 L 671 669 L 139 669 Z M 139 138.644531 " clip-rule="nonzero"/></clipPath></defs><g clip-path="url(#cb4d9ef48e)"><g clip-path="url(#65d8ca33ad)"><g transform="matrix(1, 0, 0, 1, 40, 40)"><g clip-path="url(#d65dd16be0)"><g clip-path="url(#539e24a32f)"><g clip-path="url(#bf2d2475f9)"><path fill="#e0218a" d="M 0.5 0.5 L 729.496094 0.5 L 729.496094 729.5 L 0.5 729.5 Z M 0.5 0.5 " fill-opacity="1" fill-rule="nonzero"/></g></g></g></g></g></g><g clip-path="url(#e4ebfce868)"><path fill="#ffffff" d="M 659.621094 328.421875 C 651.109375 306.609375 635.8125 286.757812 614.207031 276.789062 C 592.601562 266.820312 568.285156 269.648438 547.277344 278.875 C 523.289062 289.4375 502.84375 307.144531 483.5625 324.523438 C 480.585938 327.085938 477.847656 329.703125 475.019531 332.320312 C 479.601562 322.621094 483.898438 312.789062 487.90625 302.828125 C 497.667969 278.753906 507.308594 253.488281 509.035156 227.359375 C 510.554688 204.445312 504.660156 180.429688 488.203125 163.734375 C 471.746094 147.039062 447.550781 139.242188 424.160156 138.644531 C 411.039062 138.515625 398.082031 139.925781 385.292969 142.871094 C 374.480469 144.886719 364.34375 148.695312 354.878906 154.300781 C 352.460938 155.84375 350.183594 157.578125 348.046875 159.496094 C 345.914062 161.417969 343.953125 163.5 342.164062 165.746094 C 340.375 167.992188 338.78125 170.367188 337.382812 172.878906 C 335.988281 175.386719 334.804688 177.992188 333.839844 180.695312 C 329.992188 192.15625 327.9375 203.933594 327.679688 216.019531 C 327.179688 228.289062 327.675781 240.519531 329.175781 252.707031 C 330.671875 264.894531 333.152344 276.882812 336.605469 288.664062 C 340.246094 301.445312 344.703125 313.933594 349.96875 326.132812 C 344.355469 318.929688 338.542969 311.875 332.53125 304.972656 C 315.566406 285.300781 297.503906 265.152344 275.003906 251.730469 C 255.304688 239.828125 231.257812 234.234375 208.878906 241.285156 C 186.5 248.339844 168.523438 266.226562 157.246094 286.789062 C 151.136719 298.40625 146.472656 310.578125 143.257812 323.304688 C 140.15625 333.855469 138.953125 344.617188 139.65625 355.59375 C 139.933594 358.449219 140.445312 361.261719 141.183594 364.035156 C 141.921875 366.804688 142.882812 369.5 144.066406 372.113281 C 145.246094 374.726562 146.636719 377.226562 148.226562 379.613281 C 149.820312 382 151.59375 384.242188 153.554688 386.335938 C 161.984375 394.964844 171.507812 402.148438 182.125 407.882812 C 192.804688 413.964844 203.910156 419.132812 215.441406 423.394531 C 226.96875 427.652344 238.769531 430.945312 250.839844 433.265625 C 264.605469 435.988281 278.496094 437.765625 292.503906 438.59375 C 281.875 442.964844 271.527344 447.925781 261.464844 453.472656 C 250.667969 459.289062 240.414062 465.941406 230.703125 473.433594 C 220.992188 480.921875 211.949219 489.148438 203.582031 498.113281 C 195.152344 506.785156 188.207031 516.515625 182.75 527.308594 C 181.511719 529.894531 180.492188 532.570312 179.695312 535.324219 C 178.894531 538.082031 178.328125 540.882812 177.992188 543.734375 C 177.65625 546.582031 177.554688 549.441406 177.6875 552.308594 C 177.820312 555.175781 178.191406 558.011719 178.792969 560.816406 C 181.460938 571.527344 185.894531 581.445312 192.09375 590.578125 C 199.097656 601.703125 207.320312 611.84375 216.765625 620.992188 C 233.609375 637.238281 255.78125 648.90625 279.617188 648.875 C 303.453125 648.847656 324.257812 636.140625 339.523438 618.9375 C 356.875 599.296875 368.035156 574.65625 378.210938 550.816406 C 382.855469 540.042969 387.160156 529.132812 391.128906 518.082031 C 392.953125 529.449219 395.09375 540.769531 397.554688 552.039062 C 403.121094 577.394531 409.460938 603.699219 422.792969 626.230469 C 434.488281 645.988281 452.9375 662.476562 476 666.910156 C 499.066406 671.34375 523.347656 664.144531 542.960938 651.375 C 553.898438 644.082031 563.816406 635.601562 572.722656 625.929688 C 580.511719 618.164062 586.730469 609.296875 591.378906 599.324219 C 592.496094 596.683594 593.386719 593.964844 594.054688 591.175781 C 594.722656 588.382812 595.160156 585.558594 595.367188 582.695312 C 595.570312 579.835938 595.539062 576.972656 595.277344 574.117188 C 595.011719 571.261719 594.515625 568.445312 593.789062 565.667969 C 590.480469 554.0625 585.519531 543.207031 578.910156 533.109375 C 572.390625 522.703125 565.066406 512.890625 556.945312 503.679688 C 548.820312 494.46875 540.003906 485.976562 530.492188 478.203125 C 523.628906 472.488281 516.503906 467.113281 509.125 462.074219 C 522.3125 462.859375 535.496094 462.78125 548.675781 461.835938 C 560.949219 461.066406 573.078125 459.304688 585.0625 456.542969 C 597.046875 453.78125 608.726562 450.058594 620.097656 445.378906 C 631.355469 441.011719 641.703125 435.058594 651.136719 427.523438 C 653.347656 425.691406 655.390625 423.691406 657.269531 421.523438 C 659.148438 419.355469 660.839844 417.046875 662.335938 414.597656 C 663.835938 412.152344 665.125 409.597656 666.199219 406.9375 C 667.277344 404.277344 668.128906 401.546875 668.753906 398.746094 C 670.792969 387.933594 670.914062 377.101562 669.113281 366.246094 C 667.453125 353.261719 664.289062 340.652344 659.621094 328.421875 Z M 659.621094 328.421875 " fill-opacity="1" fill-rule="nonzero"/></g><path fill="#e0218a" d="M 467.519531 417.792969 C 467.519531 419.789062 467.421875 421.785156 467.226562 423.773438 C 467.03125 425.765625 466.738281 427.738281 466.347656 429.699219 C 465.957031 431.660156 465.472656 433.597656 464.890625 435.511719 C 464.3125 437.421875 463.640625 439.304688 462.875 441.148438 C 462.109375 442.996094 461.253906 444.800781 460.3125 446.566406 C 459.371094 448.328125 458.34375 450.039062 457.234375 451.703125 C 456.121094 453.363281 454.933594 454.96875 453.664062 456.511719 C 452.398438 458.058594 451.054688 459.539062 449.644531 460.953125 C 448.230469 462.363281 446.75 463.707031 445.203125 464.972656 C 443.660156 466.242188 442.054688 467.433594 440.394531 468.542969 C 438.730469 469.652344 437.019531 470.679688 435.253906 471.621094 C 433.492188 472.5625 431.6875 473.417969 429.839844 474.183594 C 427.992188 474.949219 426.113281 475.621094 424.199219 476.199219 C 422.289062 476.78125 420.351562 477.265625 418.390625 477.65625 C 416.429688 478.046875 414.457031 478.339844 412.464844 478.535156 C 410.476562 478.730469 408.480469 478.828125 406.484375 478.828125 C 404.484375 478.828125 402.488281 478.730469 400.5 478.535156 C 398.511719 478.339844 396.535156 478.046875 394.574219 477.65625 C 392.613281 477.265625 390.679688 476.78125 388.765625 476.199219 C 386.851562 475.621094 384.972656 474.949219 383.125 474.183594 C 381.277344 473.417969 379.472656 472.5625 377.710938 471.621094 C 375.945312 470.679688 374.234375 469.652344 372.574219 468.542969 C 370.910156 467.433594 369.308594 466.242188 367.761719 464.972656 C 366.214844 463.707031 364.738281 462.363281 363.324219 460.953125 C 361.910156 459.539062 360.570312 458.058594 359.300781 456.511719 C 358.03125 454.96875 356.84375 453.363281 355.730469 451.703125 C 354.621094 450.039062 353.59375 448.328125 352.652344 446.566406 C 351.710938 444.800781 350.855469 442.996094 350.09375 441.148438 C 349.328125 439.304688 348.65625 437.421875 348.074219 435.511719 C 347.492188 433.597656 347.007812 431.660156 346.617188 429.699219 C 346.230469 427.738281 345.9375 425.765625 345.738281 423.773438 C 345.542969 421.785156 345.445312 419.789062 345.445312 417.792969 C 345.445312 415.792969 345.542969 413.796875 345.738281 411.808594 C 345.9375 409.820312 346.230469 407.84375 346.617188 405.882812 C 347.007812 403.921875 347.492188 401.988281 348.074219 400.074219 C 348.65625 398.160156 349.328125 396.28125 350.09375 394.433594 C 350.855469 392.585938 351.710938 390.78125 352.652344 389.019531 C 353.59375 387.257812 354.621094 385.542969 355.730469 383.882812 C 356.84375 382.21875 358.03125 380.617188 359.300781 379.070312 C 360.570312 377.523438 361.910156 376.046875 363.324219 374.632812 C 364.738281 373.21875 366.214844 371.878906 367.761719 370.609375 C 369.308594 369.339844 370.910156 368.152344 372.574219 367.042969 C 374.234375 365.929688 375.949219 364.902344 377.710938 363.960938 C 379.472656 363.019531 381.277344 362.164062 383.125 361.402344 C 384.972656 360.636719 386.851562 359.964844 388.765625 359.382812 C 390.679688 358.800781 392.613281 358.316406 394.574219 357.925781 C 396.535156 357.539062 398.511719 357.246094 400.5 357.046875 C 402.488281 356.851562 404.484375 356.753906 406.484375 356.753906 C 408.480469 356.753906 410.476562 356.851562 412.464844 357.046875 C 414.457031 357.246094 416.429688 357.539062 418.390625 357.925781 C 420.351562 358.316406 422.289062 358.800781 424.199219 359.382812 C 426.113281 359.964844 427.992188 360.636719 429.839844 361.402344 C 431.6875 362.164062 433.492188 363.019531 435.253906 363.960938 C 437.019531 364.902344 438.730469 365.929688 440.394531 367.042969 C 442.054688 368.152344 443.660156 369.339844 445.203125 370.609375 C 446.75 371.878906 448.230469 373.21875 449.644531 374.632812 C 451.054688 376.046875 452.398438 377.523438 453.664062 379.070312 C 454.933594 380.617188 456.121094 382.21875 457.234375 383.882812 C 458.34375 385.542969 459.371094 387.257812 460.3125 389.019531 C 461.253906 390.78125 462.109375 392.585938 462.875 394.433594 C 463.640625 396.28125 464.3125 398.160156 464.890625 400.074219 C 465.472656 401.988281 465.957031 403.921875 466.347656 405.882812 C 466.738281 407.84375 467.03125 409.820312 467.226562 411.808594 C 467.421875 413.796875 467.519531 415.792969 467.519531 417.792969 Z M 467.519531 417.792969 " fill-opacity="1" fill-rule="nonzero"/></svg>